# xmcd
#
# Track frame offsets: 
#        150
#        15397
#        31762
#        51503
#        68616
#        90115
#        108660
#        129794
#        146117
#        167525
#        185475
#        208425
#        228718
#        248211
#
# Disc length: 3521 seconds
#
# Revision: 0
# Processed by: cddbd v1.5.2PL0 Copyright (c) Steve Scherf et al.
# Submitted via: ExactAudioCopy v0.95b4
#
DISCID=bc0dbf0e
DTITLE=Horoshee Radio 104.4 - Horoshee Radio Mix Piter
DYEAR=2010
DGENRE=Chanson
TTITLE0=Horoshee Radio Mix Piter
TTITLE1=Horoshee Radio Mix Piter
TTITLE2=Horoshee Radio Mix Piter
TTITLE3=Horoshee Radio Mix Piter
TTITLE4=Horoshee Radio Mix Piter
TTITLE5=Horoshee Radio Mix Piter
TTITLE6=Horoshee Radio Mix Piter
TTITLE7=Horoshee Radio Mix Piter
TTITLE8=Horoshee Radio Mix Piter
TTITLE9=Horoshee Radio Mix Piter
TTITLE10=Horoshee Radio Mix Piter
TTITLE11=Horoshee Radio Mix Piter
TTITLE12=Horoshee Radio Mix Piter
TTITLE13=Horoshee Radio Mix Piter
EXTD=
EXTT0=
EXTT1=
EXTT2=
EXTT3=
EXTT4=
EXTT5=
EXTT6=
EXTT7=
EXTT8=
EXTT9=
EXTT10=
EXTT11=
EXTT12=
EXTT13=
PLAYORDER=
